<?xml version="1.0" encoding="UTF-8"?>
<svg width="440px" height="108px" viewBox="0 0 440 108" version="1.1" xmlns="http://www.w3.org/2000/svg" xmlns:xlink="http://www.w3.org/1999/xlink">
    <!-- Generator: Sketch 41.2 (35397) - http://www.bohemiancoding.com/sketch -->
    <title>Combined Shape Copy</title>
    <desc>Created with Sketch.</desc>
    <defs></defs>
    <g id="Page-1" stroke="none" stroke-width="1" fill="none" fill-rule="evenodd">
        <g id="7" transform="translate(-680.000000, -432.000000)" fill="#FFFFFF">
            <path d="M1020.66439,470.990974 C1024.33478,470.990974 1027.14155,468.183531 1027.14155,464.512258 C1027.14155,460.840986 1024.33478,458.033542 1020.66439,458.033542 C1016.994,458.033542 1014.18723,460.840986 1014.18723,464.512258 C1014.18723,467.967574 1016.994,470.990974 1020.66439,470.990974 L1020.66439,470.990974 L1020.66439,470.990974 Z M1104.86749,471.854803 C1096.44718,472.502675 1085.65191,480.493091 1085.86781,488.267551 C1085.86781,489.563294 1086.51553,495.178181 1094.07222,496.257967 L1101.19709,496.257967 C1101.19709,496.257967 1101.19709,497.121796 1100.98119,497.337753 C1100.54938,498.417539 1099.25395,500.793068 1095.15174,500.793068 L1062.98184,500.793068 C1059.31145,500.793068 1057.58421,498.633496 1057.58421,496.257967 L1067.29995,496.257967 C1071.40215,496.257967 1072.91349,496.04201 1075.07254,494.962224 C1079.17475,493.234566 1081.5497,489.347337 1081.5497,484.596278 C1081.5497,477.46969 1075.93616,472.502675 1067.51586,472.502675 C1055.64106,472.502675 1045.92532,483.084578 1045.92532,495.610096 C1045.92532,505.112212 1051.53886,510.511142 1061.90232,510.511142 L1093.2086,510.511142 C1097.95851,510.511142 1103.57205,510.079228 1108.32197,505.32817 C1113.93551,499.713282 1113.07189,494.962224 1112.20827,492.586695 C1111.12874,489.995208 1109.6174,488.699465 1106.59473,487.403722 C1105.5152,486.971807 1104.00386,487.187765 1103.14024,487.187765 L1097.74261,487.187765 C1099.46985,483.948407 1103.57205,482.220749 1106.37882,482.004792 C1108.53788,481.788835 1109.6174,482.652663 1109.6174,482.868621 C1109.6174,486.107979 1111.99236,488.699465 1114.79913,488.699465 C1117.39,488.699465 1119.54905,486.539893 1119.98086,483.732449 C1119.98086,483.732449 1120.41267,478.981391 1117.17409,475.526076 C1114.15142,472.718632 1110.04921,471.422889 1104.86749,471.854803 L1104.86749,471.854803 L1104.86749,471.854803 Z M1066.86814,482.436706 C1068.81129,482.436706 1070.10672,483.516492 1070.32263,485.028193 C1070.32263,486.539893 1068.81129,487.403722 1065.1409,487.403722 L1059.74326,487.403722 C1061.4705,483.948407 1064.06137,482.436706 1066.86814,482.436706 L1066.86814,482.436706 L1066.86814,482.436706 Z M855.280871,477.037776 C855.280871,475.094161 854.633155,473.150546 849.451426,473.150546 L841.678833,473.150546 L846.644656,460.840986 C849.019615,455.010141 852.042291,453.066527 857.871736,453.066527 L859.383073,453.066527 C864.564802,453.066527 867.371572,450.906955 867.371572,446.803768 C867.371572,444.860153 866.723856,442.916538 861.542127,442.916538 L855.712682,442.916538 C845.99694,442.916538 840.599306,446.803768 836.497104,457.169713 L830.019942,473.366504 L823.974592,473.366504 C819.008768,473.366504 815.986093,475.526076 815.986093,479.413305 C815.986093,481.35692 816.633809,483.300535 821.815538,483.300535 L825.91774,483.300535 L810.804364,520.229217 C809.724837,522.820703 809.508932,523.684532 809.508932,524.764318 C809.508932,527.139847 811.45208,529.083462 814.25885,529.083462 C817.713336,529.083462 819.656484,527.355804 821.599633,522.388789 L837.576631,483.300535 L847.292372,483.300535 C852.258196,483.084578 855.280871,480.925006 855.280871,477.037776 L855.280871,477.037776 L855.280871,477.037776 Z M1039.23225,500.577111 L1034.05052,500.577111 L1053.48201,453.066527 C1054.56153,450.259083 1054.77744,449.611211 1054.77744,448.315468 C1054.77744,445.723982 1052.61838,443.780367 1049.81161,443.780367 C1046.14122,443.780367 1043.98217,445.508025 1042.03902,450.47504 C1042.03902,450.47504 1021.74392,500.361154 1021.74392,500.577111 L1013.97132,500.577111 L1021.31211,482.652663 C1022.39163,479.84522 1022.60754,479.197348 1022.60754,477.901605 C1022.60754,475.310118 1020.23258,473.366504 1017.42581,473.366504 C1013.75542,473.366504 1011.59636,475.310118 1009.65321,480.061177 L1001.23291,500.793068 L994.755744,500.793068 L1000.36928,487.187765 C1001.017,485.676064 1001.44881,483.516492 1001.44881,482.004792 C1001.44881,476.605862 996.698892,472.502675 990.437636,472.502675 C986.119529,472.502675 981.801421,474.44629 978.13103,478.117562 C975.756071,474.014375 972.949301,472.502675 968.415288,472.502675 C964.313086,472.502675 962.369938,473.366504 957.835925,477.253733 C957.188209,474.662247 955.24506,473.150546 952.654196,473.150546 C949.63152,473.150546 947.904277,474.44629 946.39294,478.117562 L938.188535,498.201582 L941.427116,498.201582 C944.233886,498.201582 947.904277,498.633496 948.983804,502.304769 L953.733722,490.64308 C955.676871,486.107979 958.915452,483.084578 962.154032,483.084578 C963.881275,483.084578 965.392613,484.380321 965.392613,485.676064 C965.392613,486.323936 965.176707,487.187765 964.528991,488.483508 L959.131357,502.088812 C958.267735,504.464341 957.835925,505.544127 957.835925,506.623913 C957.835925,509.215399 959.994978,511.159014 962.585843,511.159014 C966.256234,511.159014 968.415288,509.431356 970.358436,504.464341 L975.756071,491.074994 C977.699219,486.323936 981.153705,482.868621 984.608191,482.868621 C986.55134,482.868621 987.846772,484.164364 987.846772,486.107979 C987.846772,486.539893 987.630866,487.403722 987.414961,487.835636 L982.880948,499.065411 C982.017327,500.793068 981.585516,503.168598 981.585516,504.248384 C981.585516,507.919656 984.392286,510.511142 988.926299,510.511142 L1039.23225,510.511142 C1043.55036,510.079228 1045.70941,507.703699 1045.70941,504.032426 C1045.70941,501.009026 1043.55036,500.577111 1039.23225,500.577111 L1039.23225,500.577111 L1039.23225,500.577111 Z M940.995305,500.577111 L929.336415,500.577111 L929.55232,499.92924 L935.16586,486.323936 C936.029482,484.164364 936.245387,482.868621 936.245387,481.572877 C936.245387,476.389904 931.92728,472.502675 925.881929,472.502675 C922.427443,472.502675 920.052484,473.366504 915.950282,476.605862 L915.518471,477.037776 L915.302566,476.389904 C914.438944,474.230332 912.927607,473.366504 910.336742,473.366504 C907.314067,473.366504 905.370918,474.878204 904.075486,477.901605 L894.791555,500.793068 L884.644002,500.793068 L892.200691,482.220749 C893.064312,480.061177 893.496123,478.765434 893.496123,477.685648 C893.496123,475.310118 891.552974,473.366504 888.96211,473.366504 C886.15534,473.366504 884.428097,474.44629 882.700854,476.821819 L882.269043,477.46969 L881.837232,476.821819 C879.894084,474.014375 877.087314,472.718632 872.985112,472.718632 C861.973938,472.718632 851.826385,484.596278 851.826385,497.121796 C851.826385,505.32817 856.576304,510.943057 863.701181,510.943057 L898.030136,510.943057 C901.484622,510.943057 902.780054,509.647314 904.723202,505.32817 L910.552647,490.64308 C912.711701,485.676064 916.166187,482.652663 919.404768,482.652663 C921.779727,482.652663 923.50697,484.164364 923.50697,486.107979 C923.50697,486.75585 923.291065,487.403722 922.643348,489.131379 L918.109336,500.145197 C917.029809,502.736683 916.597998,504.032426 916.597998,505.112212 C916.597998,508.567528 919.404768,511.159014 923.291065,511.159014 L938.620346,511.159014 C941.427116,511.159014 943.802075,510.295185 945.097507,508.783485 C945.529318,508.35157 945.745224,507.703699 946.177034,507.055827 C946.39294,506.407956 946.608845,505.760084 946.608845,504.896255 C946.82475,502.088812 945.745224,500.577111 940.995305,500.577111 L940.995305,500.577111 L940.995305,500.577111 Z M877.73503,488.483508 L874.280544,497.121796 C873.201017,499.497325 871.257869,500.793068 868.235194,500.793068 L866.939762,500.793068 C863.917086,500.793068 862.189843,498.849454 862.189843,495.178181 C862.189843,488.699465 868.235194,481.572877 873.416923,481.572877 C876.223693,481.572877 878.598652,483.300535 878.598652,485.460107 C878.598652,486.107979 878.166841,487.619679 877.73503,488.483508 Z M738.354729,432.145673 C708.882261,429.993591 682.664219,451.932071 680.137653,481.691654 C679.281245,493.699563 682.452783,505.301644 688.762405,515.081337 L711.402379,456.918663 C712.47667,455.729116 713.956721,455.096275 715.714755,455.841577 C716.916822,456.361957 717.55113,457.838585 716.792849,459.072836 L715.714755,462.304096 C724.951383,461.846577 747.363581,459.948054 749.135668,473.074961 L737.276635,501.079212 C735.311739,487.793049 712.47667,489.902518 704.933815,490.308346 L691.996687,520.46677 C701.270571,531.037169 714.591028,538.420312 729.729977,539.854327 C759.203987,542.006409 785.422029,520.067929 787.947052,490.308346 C790.285053,460.580895 768.295727,434.634423 738.354729,432.145673 Z M738.354729,506.464644 L746.97948,483.845827 C754.261033,499.739011 777.166112,491.362873 777.166112,491.385433 C769.531086,511.121967 743.444746,512.410604 738.354729,506.464644 Z" id="Combined-Shape-Copy"></path>
        </g>
    </g>
</svg>